<svg width="50" height="50" viewBox="0 0 50 50" fill="none" xmlns="http://www.w3.org/2000/svg">
<path d="M25.075 11.1229C17.5021 11.1229 11.3437 17.2812 11.3396 24.85C11.3375 27.9396 12.2437 30.2542 13.7646 32.675L12.3771 37.7417L17.5729 36.3792C19.9 37.7604 22.1229 38.5896 25.0625 38.5896C32.6292 38.5896 38.7937 32.4312 38.7958 24.8604C38.8021 17.275 32.6667 11.125 25.075 11.1229ZM33.15 30.7542C32.8062 31.7187 31.1562 32.5979 30.3646 32.7167C29.6542 32.8229 28.7542 32.8667 27.7646 32.5542C27.1646 32.3646 26.3958 32.1104 25.4125 31.6854C21.2729 29.8979 18.5688 25.7292 18.3625 25.4542C18.1562 25.1792 16.6771 23.2167 16.6771 21.1854C16.6771 19.1542 17.7437 18.1562 18.1208 17.7417C18.5 17.325 18.9458 17.2208 19.2208 17.2208L20.0125 17.2354C20.2667 17.2479 20.6062 17.1396 20.9417 17.9437C21.2854 18.7708 22.1104 20.8021 22.2146 21.0083C22.3167 21.2146 22.3875 21.4562 22.2479 21.7312C22.1104 22.0062 22.0417 22.1792 21.8354 22.4187L21.2167 23.1417C21.0104 23.3479 20.7958 23.5708 21.0354 23.9833C21.2771 24.3958 22.1042 25.7479 23.3312 26.8417C24.9083 28.2479 26.2375 28.6833 26.65 28.8896C27.0625 29.0958 27.3042 29.0625 27.5437 28.7854C27.7854 28.5104 28.575 27.5812 28.85 27.1667C29.125 26.7521 29.4 26.8229 29.7792 26.9604C30.1583 27.0979 32.1875 28.0958 32.6 28.3042C33.0125 28.5104 33.2875 28.6146 33.3917 28.7854C33.4937 28.9625 33.4937 29.7896 33.15 30.7542ZM39.5833 0H10.4167C4.66458 0 0 4.66458 0 10.4167V39.5833C0 45.3354 4.66458 50 10.4167 50H39.5833C45.3375 50 50 45.3354 50 39.5833V10.4167C50 4.66458 45.3375 0 39.5833 0ZM25.0687 41.3792C22.3042 41.3792 19.5812 40.6854 17.1687 39.3687L8.4125 41.6667L10.7562 33.1083C9.31042 30.6042 8.55 27.7625 8.55208 24.85C8.55625 15.7417 15.9646 8.33333 25.0687 8.33333C29.4875 8.33542 33.6354 10.0562 36.7542 13.1771C39.8729 16.2979 41.5896 20.45 41.5875 24.8625C41.5833 33.9708 34.1729 41.3792 25.0687 41.3792Z" fill="#DCE8F2"/>
</svg>
