<svg width="51" height="50" viewBox="0 0 51 50" fill="none" xmlns="http://www.w3.org/2000/svg">
<g clip-path="url(#clip0)">
<path d="M47.7493 2.7504C45.9162 0.916914 43.7078 0 41.1255 0H9.87531C7.29308 0 5.0846 0.916914 3.25077 2.7504C1.41728 4.58423 0.500366 6.7926 0.500366 9.37494V40.6248C0.500366 43.2069 1.41728 45.4155 3.25077 47.2493C5.0846 49.0832 7.29308 50.0001 9.87531 50.0001H41.1252C43.7074 50.0001 45.9159 49.0832 47.7489 47.2493C49.5828 45.4155 50.4997 43.207 50.4997 40.6248V9.37494C50.4996 6.7926 49.5826 4.58389 47.7493 2.7504ZM43.0456 25.716H37.349V46.3861H28.8204V25.716H24.5562V18.5868H28.8205V14.3224C28.8205 11.2625 29.5369 8.95148 30.9689 7.38878C32.4008 5.82609 34.7661 5.04519 38.0655 5.04519H43.762V12.1741H40.1818C38.9661 12.1741 38.1903 12.3854 37.854 12.809C37.5177 13.2321 37.3491 13.9754 37.3491 15.0389V18.5869H43.7949L43.0456 25.716Z" fill="#DCE8F2"/>
</g>
<defs>
<clipPath id="clip0">
<rect width="50" height="50" fill="white" transform="translate(0.5)"/>
</clipPath>
</defs>
</svg>
