<svg width="50" height="50" viewBox="0 0 50 50" fill="none" xmlns="http://www.w3.org/2000/svg">
<path d="M24.9999 35.4168C30.7529 35.4168 35.4166 30.7532 35.4166 25.0003C35.4166 19.2474 30.7529 14.5837 24.9999 14.5837C19.2469 14.5837 14.5833 19.2474 14.5833 25.0003C14.5833 30.7532 19.2469 35.4168 24.9999 35.4168Z" fill="#DCE8F2"/>
<path d="M0 41.6667C0 46.2708 3.72917 50 8.33333 50H41.6667C46.2708 50 50 46.2708 50 41.6667V8.33333C50 3.72917 46.2708 0 41.6667 0H8.33333C3.72917 0 0 3.72917 0 8.33333V41.6667ZM41.6667 4.16667C43.9792 4.16667 45.8333 6.04146 45.8333 8.33333C45.8333 10.6248 43.9792 12.5 41.6667 12.5C39.375 12.5 37.5 10.6248 37.5 8.33333C37.5 6.04146 39.375 4.16667 41.6667 4.16667ZM25 10.4167C33.0417 10.4167 39.5833 16.9581 39.5833 25C39.5833 33.0415 33.0417 39.5833 25 39.5833C16.9585 39.5833 10.4167 33.0415 10.4167 25C10.4167 16.9581 16.9585 10.4167 25 10.4167Z" fill="#DCE8F2"/>
</svg>
